# xmcd
# Track frame offsets:
# 150
# 15927
# 26751
# 40118
# 60238
# 74581
# 86520
# 101251
# 111944
# 122602
# 137407
# 155417
# 170252
# 190198
# 208575
# 220945
# 238597
# 246357
# 261658
# 272229
# 284765
# 297928
#
# Disc length: 4108 seconds
# Revision: 0
# Processed by: cddbd v1.4PL0 Copyright (c) Steve Scherf et al.
# Submitted via: VisiTrax 2.9.3.171 - For more info visit www.synapsa.com
#
DISCID=44100a16
DTITLE=Various Artist - Hit The Hay vol. 6 [CD1]
DYEAR=2002
DGENRE=Alternative Country
TTITLE0=The Honeydogs - Piece of cake
TTITLE1=Charlie Chesterman and The Legendary Motorbikes - Beatle Boots
TTITLE2=Phil Lee - Nobody's gotta know
TTITLE3=Eric Amberl - Hole in my head
TTITLE4=The Bottle Rockets - Mendocino
TTITLE5=Bod Delevante - Simple as that
TTITLE6=The Paul Collins Band - It's gonna be a long time
TTITLE7=Bill Lloyd - Dont' listen to me
TTITLE8=The Sprague Brothers - Waiting for you
TTITLE9=Spike Priggen - Every broken heart
TTITLE10=Will Rigby - The question
TTITLE11=Amy Allison - Sad state of affairs
TTITLE12=Hayseed - Precious memories
TTITLE13=Two Dollar Pistol - All about Eve
TTITLE14=Christy McWilson - Ship song
TTITLE15=Tom Meltzer - Married man
TTITLE16=Nourallah Brothers - I just can't believe
TTITLE17=Liquor Giants - Way underground
TTITLE18=Sherry Rich - Leave me out of it
TTITLE19=The Westside Daredevils - Andrea
TTITLE20=Charlie Burton - Leaver/Leavee
TTITLE21=Paul Foglino - You can't be too old to get drunk
EXTD=
EXTT0=
EXTT1=
EXTT2=
EXTT3=
EXTT4=
EXTT5=
EXTT6=
EXTT7=
EXTT8=
EXTT9=
EXTT10=
EXTT11=
EXTT12=
EXTT13=
EXTT14=
EXTT15=
EXTT16=
EXTT17=
EXTT18=
EXTT19=
EXTT20=
EXTT21=
PLAYORDER=
